<?xml version="1.0" encoding="UTF-8"?>
<!DOCTYPE svg PUBLIC "-//W3C//DTD SVG 1.1//EN" "http://www.w3.org/Graphics/SVG/1.1/DTD/svg11.dtd">
<!-- Creator: CorelDRAW 2021 (64-Bit) -->
<svg xmlns="http://www.w3.org/2000/svg" xml:space="preserve" width="39.8065mm" height="16.2248mm" version="1.1" style="shape-rendering:geometricPrecision; text-rendering:geometricPrecision; image-rendering:optimizeQuality; fill-rule:evenodd; clip-rule:evenodd"
viewBox="0 0 386.98 157.73"
 xmlns:xlink="http://www.w3.org/1999/xlink"
 xmlns:xodm="http://www.corel.com/coreldraw/odm/2003">
 <defs>
  <style type="text/css">
   <![CDATA[
    .str0 {stroke:#FEFEFE;stroke-width:1.65;stroke-miterlimit:22.9256}
    .fil2 {fill:#FEFEFE}
    .fil6 {fill:white}
    .fil0 {fill:#FEFEFE;fill-rule:nonzero}
    .fil1 {fill:#EE314A;fill-rule:nonzero}
    .fil5 {fill:#2F4858;fill-rule:nonzero}
    .fil4 {fill:#9B4691;fill-rule:nonzero}
    .fil3 {fill:#CF3278;fill-rule:nonzero}
   ]]>
  </style>
 </defs>
 <g id="Capa_x0020_1">
  <metadata id="CorelCorpID_0Corel-Layer"/>
  <g id="_2642500863936">
   <path class="fil0" d="M74.41 124.21c-2.22,0 -4.43,-0.4 -6.5,-1.24 -15.79,-6.41 -12.7,-28.1 2.11,-33.59 1.55,-0.58 3.17,-0.84 4.8,-0.84 6.41,0 12.9,4.17 15.75,9.81 3.26,6.44 2.1,14.86 -2.79,20.17 -3.38,3.68 -8.39,5.7 -13.37,5.7z"/>
   <g>
    <path class="fil1" d="M35.09 128.37l-22.91 -2.05 5.05 -93.69c-2.36,0.55 -4.55,1.18 -6.55,1.91l-4.09 -23.19c4.82,-1 10.77,-2.05 17.87,-3.14 7.09,-1.09 14.41,-1.64 21.96,-1.64 5.82,0 11.73,0.61 17.73,1.84 6,1.23 11.75,3.23 17.25,6 5.5,2.77 10.41,6.48 14.73,11.11 4.32,4.64 7.73,10.32 10.23,17.05 2.5,6.73 3.75,14.68 3.75,23.87 0,12.91 -2.07,23.93 -6.21,33.07 -4.14,9.14 -10.14,16.12 -18,20.93 -7.86,4.82 -17.34,7.23 -28.44,7.23 -7.36,0 -14.64,-1.36 -21.82,-4.09 -0.18,1.82 -0.36,3.41 -0.55,4.77z"/>
    <path id="_1" class="fil2" d="M34.24 134.88l-22.63 -2.02c-3.53,-0.31 -6.16,-3.36 -5.98,-6.87l-0.01 -0 4.57 -84.9c-2.5,-0.19 -4.78,-1.8 -5.69,-4.31 -0.13,-0.37 -0.23,-0.74 -0.3,-1.11l-0.01 0 -4.09 -23.19c-0.62,-3.58 1.77,-6.99 5.35,-7.61 0.06,-0.01 0.12,-0.02 0.18,-0.03 2.6,-0.54 5.23,-1.04 7.89,-1.5 3.05,-0.54 6.37,-1.08 9.94,-1.63 3.67,-0.56 7.44,-0.99 11.29,-1.28 3.89,-0.29 7.77,-0.43 11.64,-0.43 3.03,0 6.18,0.17 9.47,0.51 3.14,0.32 6.33,0.82 9.57,1.48 3.3,0.67 6.52,1.56 9.66,2.65 3.16,1.1 6.25,2.41 9.24,3.91 3.12,1.57 6.06,3.4 8.81,5.48 2.75,2.07 5.34,4.42 7.77,7.03 2.46,2.64 4.67,5.59 6.62,8.85 1.9,3.17 3.55,6.63 4.95,10.39 1.4,3.77 2.45,7.88 3.15,12.3 0.69,4.41 1.04,9.03 1.04,13.86 0,6.81 -0.56,13.19 -1.68,19.16 -1.13,6.04 -2.84,11.58 -5.12,16.61 -2.32,5.13 -5.19,9.69 -8.61,13.65 -3.46,4.02 -7.45,7.42 -11.97,10.19 -4.51,2.76 -9.45,4.83 -14.81,6.19 -5.28,1.34 -10.96,2.01 -17.05,2.01 -5.69,0 -11.34,-0.74 -16.94,-2.22 -1.35,1.98 -3.74,3.15 -6.28,2.82zm0.85 -6.51l-22.91 -2.05 5.05 -93.69c-2.36,0.55 -4.55,1.18 -6.55,1.91l-4.09 -23.19c4.82,-1 10.77,-2.05 17.87,-3.14 7.09,-1.09 14.41,-1.64 21.96,-1.64 5.82,0 11.73,0.61 17.73,1.84 6,1.23 11.75,3.23 17.25,6 5.5,2.77 10.41,6.48 14.73,11.11 4.32,4.64 7.73,10.32 10.23,17.05 2.5,6.73 3.75,14.68 3.75,23.87 0,12.91 -2.07,23.93 -6.21,33.07 -4.14,9.14 -10.14,16.12 -18,20.93 -7.86,4.82 -17.34,7.23 -28.44,7.23 -7.36,0 -14.64,-1.36 -21.82,-4.09 -0.18,1.82 -0.36,3.41 -0.55,4.77z"/>
   </g>
   <g>
    <path class="fil3" d="M162.33 128.78c-7.27,0 -13.62,-1.18 -19.02,-3.55 -5.41,-2.36 -9.89,-5.61 -13.43,-9.75 -3.55,-4.14 -6.18,-8.89 -7.91,-14.25 -1.73,-5.36 -2.59,-11 -2.59,-16.91 0,-6 1.07,-11.57 3.21,-16.71 2.14,-5.14 5.09,-9.61 8.86,-13.43 3.77,-3.82 8.21,-6.8 13.3,-8.93 5.09,-2.14 10.64,-3.21 16.64,-3.21 6.27,0 12.09,1.09 17.46,3.27 5.36,2.18 10.05,5.23 14.05,9.14 4,3.91 7.11,8.5 9.34,13.77 2.23,5.27 3.34,11 3.34,17.18 0,13.73 -3.77,24.39 -11.32,31.98 -7.55,7.59 -18.18,11.39 -31.91,11.39zm-0.14 -22.09c6.64,0 11.7,-1.86 15.21,-5.59 3.5,-3.73 5.25,-9.09 5.25,-16.09 0,-6.27 -1.91,-11.32 -5.73,-15.14 -3.82,-3.82 -8.82,-5.73 -15,-5.73 -3.73,0 -7.14,0.98 -10.23,2.93 -3.09,1.96 -5.57,4.55 -7.43,7.77 -1.86,3.23 -2.8,6.8 -2.8,10.71 0,3.46 0.7,6.82 2.11,10.09 1.41,3.27 3.66,5.93 6.75,7.98 3.09,2.05 7.05,3.07 11.87,3.07z"/>
    <path id="_1_0" class="fil2" d="M162.33 135.36c-3.96,0 -7.77,-0.34 -11.39,-1.01 -3.68,-0.68 -7.1,-1.72 -10.25,-3.1 -3.17,-1.38 -6.06,-3.02 -8.65,-4.9 -2.64,-1.92 -5.02,-4.12 -7.15,-6.6 -2.05,-2.39 -3.84,-4.97 -5.38,-7.75 -1.53,-2.76 -2.79,-5.68 -3.79,-8.77 -0.99,-3.07 -1.73,-6.17 -2.2,-9.28 -0.48,-3.15 -0.72,-6.37 -0.72,-9.64 0,-6.86 1.24,-13.27 3.72,-19.23 1.22,-2.94 2.69,-5.72 4.41,-8.32 1.7,-2.58 3.65,-4.98 5.84,-7.2 2.19,-2.22 4.59,-4.2 7.18,-5.94 2.62,-1.76 5.37,-3.25 8.25,-4.45 2.93,-1.23 6.03,-2.16 9.29,-2.79 3.22,-0.62 6.52,-0.93 9.89,-0.93 3.49,0 6.91,0.32 10.28,0.95 3.37,0.63 6.59,1.57 9.65,2.82 3.03,1.23 5.91,2.74 8.64,4.51 2.71,1.76 5.22,3.77 7.52,6.01 2.3,2.24 4.36,4.71 6.18,7.4 1.8,2.66 3.34,5.5 4.62,8.53 2.59,6.12 3.88,12.7 3.88,19.73 0,7.59 -1.07,14.42 -3.22,20.48 -2.21,6.25 -5.56,11.63 -10.03,16.13 -4.49,4.52 -9.85,7.89 -16.08,10.11 -6.04,2.16 -12.87,3.23 -20.49,3.23zm0 -6.58c-7.27,0 -13.62,-1.18 -19.02,-3.55 -5.41,-2.36 -9.89,-5.61 -13.43,-9.75 -3.55,-4.14 -6.18,-8.89 -7.91,-14.25 -1.73,-5.36 -2.59,-11 -2.59,-16.91 0,-6 1.07,-11.57 3.21,-16.71 2.14,-5.14 5.09,-9.61 8.86,-13.43 3.77,-3.82 8.21,-6.8 13.3,-8.93 5.09,-2.14 10.64,-3.21 16.64,-3.21 6.27,0 12.09,1.09 17.46,3.27 5.36,2.18 10.05,5.23 14.05,9.14 4,3.91 7.11,8.5 9.34,13.77 2.23,5.27 3.34,11 3.34,17.18 0,13.73 -3.77,24.39 -11.32,31.98 -7.55,7.59 -18.18,11.39 -31.91,11.39zm-0.14 -22.09c6.64,0 11.7,-1.86 15.21,-5.59 3.5,-3.73 5.25,-9.09 5.25,-16.09 0,-6.27 -1.91,-11.32 -5.73,-15.14 -3.82,-3.82 -8.82,-5.73 -15,-5.73 -3.73,0 -7.14,0.98 -10.23,2.93 -3.09,1.96 -5.57,4.55 -7.43,7.77 -1.86,3.23 -2.8,6.8 -2.8,10.71 0,3.46 0.7,6.82 2.11,10.09 1.41,3.27 3.66,5.93 6.75,7.98 3.09,2.05 7.05,3.07 11.87,3.07zm0 -6.58c4.75,0 8.23,-1.17 10.42,-3.51 1.07,-1.15 1.9,-2.6 2.47,-4.35 0.65,-2 0.98,-4.41 0.98,-7.24 0,-4.45 -1.27,-7.95 -3.8,-10.48 -1.25,-1.25 -2.69,-2.19 -4.3,-2.8 -1.74,-0.66 -3.75,-0.99 -6.04,-0.99 -1.26,0 -2.45,0.16 -3.55,0.48 -1.12,0.32 -2.18,0.8 -3.18,1.43 -1.08,0.68 -2.05,1.48 -2.92,2.38 -0.9,0.95 -1.68,1.98 -2.33,3.1 -0,0.01 -0.01,0.01 -0.01,0.02l0.01 0.01c-0.64,1.11 -1.12,2.26 -1.43,3.45 -0.31,1.19 -0.47,2.52 -0.47,3.96 0,1.33 0.13,2.59 0.37,3.78 0.25,1.21 0.65,2.45 1.2,3.72 0.45,1.05 1.03,1.99 1.72,2.8 0.72,0.85 1.59,1.62 2.62,2.29 0.94,0.63 2.05,1.1 3.3,1.43 1.38,0.36 3.03,0.54 4.93,0.54z"/>
   </g>
   <g>
    <path class="fil4" d="M247.84 118.28c-5.73,0 -10.59,-0.86 -14.59,-2.59 -4,-1.73 -7.3,-3.98 -9.89,-6.75 -2.59,-2.77 -4.61,-5.77 -6.07,-9 -1.46,-3.23 -2.45,-6.36 -3,-9.41 -0.55,-3.05 -0.82,-5.71 -0.82,-7.98 0,-4.36 0.61,-8.86 1.84,-13.5 1.23,-4.64 3.32,-8.96 6.27,-12.96 2.95,-4 7,-7.23 12.14,-9.68 5.14,-2.45 11.61,-3.68 19.43,-3.68 2.36,0 4.55,0.18 6.55,0.55 2,0.36 3.86,0.86 5.59,1.5l0 -4.5 23.59 0c-0.09,5.46 -0.18,11.62 -0.27,18.48 -0.09,6.86 -0.14,14.61 -0.14,23.25 0,4.45 0.02,9.11 0.07,13.98 0.04,4.86 0.07,10.16 0.07,15.89 0,7.82 -1.05,14.23 -3.14,19.23 -2.09,5 -4.77,8.86 -8.05,11.59 -3.27,2.73 -6.66,4.71 -10.16,5.93 -3.5,1.23 -6.73,1.96 -9.68,2.18 -2.95,0.23 -5.16,0.34 -6.61,0.34 -3.55,0 -7.46,-0.39 -11.73,-1.16 -4.27,-0.77 -8.55,-2 -12.82,-3.68 -4.27,-1.68 -8.18,-3.84 -11.73,-6.48l9.96 -20.73c2.27,1.91 4.54,3.66 6.82,5.25 2.27,1.59 4.91,2.86 7.91,3.82 3,0.95 6.73,1.43 11.18,1.43 4.55,0 7.91,-0.8 10.09,-2.39 2.18,-1.59 3.61,-3.68 4.3,-6.27 0.68,-2.59 1.07,-5.43 1.16,-8.52 -3.09,2.27 -6.23,3.82 -9.41,4.64 -3.18,0.82 -6.14,1.23 -8.87,1.23zm-13.91 -37.64c0,5.18 1.43,9.27 4.3,12.27 2.86,3 6.8,4.5 11.8,4.5 7,0 12.23,-4.05 15.68,-12.14 0,-2.91 -0.02,-5.89 -0.07,-8.93 -0.05,-3.05 -0.11,-6.02 -0.21,-8.93 -3.64,-2.36 -7.82,-3.55 -12.55,-3.55 -5.82,0 -10.43,1.52 -13.84,4.57 -3.41,3.05 -5.11,7.11 -5.11,12.21z"/>
    <path id="_1_1" class="fil2" d="M247.84 118.28c-5.73,0 -10.59,-0.86 -14.59,-2.59 -4,-1.73 -7.3,-3.98 -9.89,-6.75 -2.59,-2.77 -4.61,-5.77 -6.07,-9 -1.46,-3.23 -2.45,-6.36 -3,-9.41 -0.55,-3.05 -0.82,-5.71 -0.82,-7.98 0,-4.36 0.61,-8.86 1.84,-13.5 1.23,-4.64 3.32,-8.96 6.27,-12.96 2.95,-4 7,-7.23 12.14,-9.68 5.14,-2.45 11.61,-3.68 19.43,-3.68 2.36,0 4.55,0.18 6.55,0.55 2,0.36 3.86,0.86 5.59,1.5l0 -4.5 23.59 0c-0.09,5.46 -0.18,11.62 -0.27,18.48 -0.09,6.86 -0.14,14.61 -0.14,23.25 0,4.45 0.02,9.11 0.07,13.98 0.04,4.86 0.07,10.16 0.07,15.89 0,7.82 -1.05,14.23 -3.14,19.23 -2.09,5 -4.77,8.86 -8.05,11.59 -3.27,2.73 -6.66,4.71 -10.16,5.93 -3.5,1.23 -6.73,1.96 -9.68,2.18 -2.95,0.23 -5.16,0.34 -6.61,0.34 -3.55,0 -7.46,-0.39 -11.73,-1.16 -4.27,-0.77 -8.55,-2 -12.82,-3.68 -4.27,-1.68 -8.18,-3.84 -11.73,-6.48l9.96 -20.73c2.27,1.91 4.54,3.66 6.82,5.25 2.27,1.59 4.91,2.86 7.91,3.82 3,0.95 6.73,1.43 11.18,1.43 4.55,0 7.91,-0.8 10.09,-2.39 2.18,-1.59 3.61,-3.68 4.3,-6.27 0.68,-2.59 1.07,-5.43 1.16,-8.52 -3.09,2.27 -6.23,3.82 -9.41,4.64 -3.18,0.82 -6.14,1.23 -8.87,1.23zm-13.91 -37.64c0,5.18 1.43,9.27 4.3,12.27 2.86,3 6.8,4.5 11.8,4.5 7,0 12.23,-4.05 15.68,-12.14 0,-2.91 -0.02,-5.89 -0.07,-8.93 -0.05,-3.05 -0.11,-6.02 -0.21,-8.93 -3.64,-2.36 -7.82,-3.55 -12.55,-3.55 -5.82,0 -10.43,1.52 -13.84,4.57 -3.41,3.05 -5.11,7.11 -5.11,12.21zm-14.12 34.04c-0.43,-0.41 -0.85,-0.84 -1.26,-1.27 -1.55,-1.65 -2.92,-3.37 -4.1,-5.13 -1.21,-1.79 -2.26,-3.68 -3.15,-5.65 -0.79,-1.75 -1.49,-3.59 -2.1,-5.49 -0.63,-1.97 -1.09,-3.79 -1.39,-5.46 -0.03,-0.2 -0.06,-0.39 -0.08,-0.59 -0.26,-1.52 -0.46,-2.92 -0.59,-4.18 -0.17,-1.66 -0.26,-3.12 -0.26,-4.37 0,-2.39 0.18,-4.9 0.54,-7.52 0.35,-2.54 0.86,-5.09 1.54,-7.65 0.72,-2.73 1.7,-5.36 2.93,-7.9 1.22,-2.51 2.69,-4.95 4.43,-7.29 1.82,-2.47 3.97,-4.69 6.43,-6.66 2.37,-1.89 5.09,-3.57 8.15,-5.03 3.11,-1.49 6.55,-2.59 10.33,-3.3 3.69,-0.7 7.67,-1.05 11.93,-1.05 2.29,0 4.5,0.17 6.65,0.5 1.18,-1.78 3.2,-2.95 5.49,-2.95l23.59 0c3.64,0 6.58,2.95 6.58,6.58 0,0.23 -0.01,0.46 -0.03,0.68 -0.04,2.69 -0.09,5.36 -0.13,8.11l-0.14 9.77c-0.05,3.46 -0.08,7.11 -0.1,10.93 -0,0.99 -0.01,5 -0.01,12.25 0,5.6 -0.01,5.8 -0.01,6.84 0.01,2.28 0.03,4.65 0.05,7.09 0.02,2.43 0.04,5 0.05,7.7 0.03,6.43 0.04,7.3 0.04,8.24 0,4.19 -0.3,8.1 -0.89,11.73 -0.61,3.73 -1.53,7.08 -2.76,10.02 -1.22,2.91 -2.64,5.53 -4.25,7.86 -0,0.01 -0.01,0.01 -0.01,0.02l0.01 0.01c-1.65,2.37 -3.54,4.45 -5.68,6.23 -1.99,1.66 -3.95,3.05 -5.87,4.17 -2,1.17 -4.11,2.14 -6.32,2.92 -1.98,0.7 -3.91,1.25 -5.77,1.67 -1.98,0.45 -3.84,0.74 -5.59,0.87 -1.26,0.1 -2.59,0.18 -4.02,0.26 -1.43,0.07 -2.46,0.11 -3.08,0.11 -1.85,0 -3.93,-0.11 -6.23,-0.34 -2.09,-0.21 -4.31,-0.52 -6.65,-0.95 -2.48,-0.45 -4.84,-0.99 -7.05,-1.63 -2.31,-0.66 -4.65,-1.46 -7,-2.39 -2.41,-0.95 -4.71,-2.03 -6.91,-3.24 -2.19,-1.21 -4.3,-2.57 -6.34,-4.08 -2.65,-1.97 -3.4,-5.56 -1.87,-8.38l9.82 -20.45c0.28,-0.59 0.64,-1.12 1.07,-1.59zm20.71 -34.04c0,1.89 0.23,3.48 0.69,4.79 0.4,1.14 1,2.13 1.78,2.95 0.73,0.77 1.63,1.35 2.68,1.75 1.2,0.46 2.65,0.69 4.36,0.69 2.02,0 3.74,-0.55 5.16,-1.64 1.47,-1.14 2.78,-2.9 3.94,-5.29 -0,-3.31 -0.02,-5.8 -0.04,-7.48 -0.02,-1.41 -0.05,-2.9 -0.09,-4.44 -0,-0.17 -0.01,-0.34 -0.01,-0.52 -0.39,-0.14 -0.78,-0.28 -1.19,-0.39 -1.48,-0.42 -3.12,-0.63 -4.91,-0.63 -2.21,0 -4.13,0.27 -5.77,0.81 -1.47,0.49 -2.71,1.17 -3.7,2.06 -0.95,0.85 -1.67,1.84 -2.14,2.97 -0.51,1.21 -0.76,2.67 -0.76,4.35z"/>
   </g>
   <g>
    <path class="fil5" d="M340.71 128.92c-6.18,0 -11.91,-0.73 -17.18,-2.18 -5.27,-1.45 -10.05,-3.32 -14.32,-5.59 -4.27,-2.27 -8.09,-4.68 -11.46,-7.23l12.27 -19.78c3.82,3.55 7.5,6.27 11.05,8.18 3.55,1.91 7.25,3.23 11.11,3.95 3.86,0.73 8.07,1.09 12.61,1.09 3.91,0 7.05,-0.52 9.41,-1.57 2.36,-1.05 3.55,-2.39 3.55,-4.02 0,-1.36 -1.14,-2.43 -3.41,-3.2 -2.27,-0.77 -5.18,-1.46 -8.73,-2.05 -3.54,-0.59 -7.27,-1.34 -11.18,-2.25 -5.55,-1.45 -10.73,-3.14 -15.55,-5.05 -4.82,-1.91 -8.7,-4.5 -11.66,-7.77 -2.95,-3.27 -4.43,-7.64 -4.43,-13.09 0,-4.36 1.05,-8.21 3.14,-11.52 2.09,-3.32 4.89,-6.09 8.39,-8.32 3.5,-2.23 7.48,-3.89 11.93,-4.98 4.46,-1.09 9.05,-1.64 13.77,-1.64 8.18,0 15.25,0.98 21.21,2.93 5.96,1.96 11.66,4.52 17.12,7.71l-12.41 18.82c-2.73,-1.91 -5.84,-3.57 -9.34,-4.98 -3.5,-1.41 -7,-2.5 -10.5,-3.27 -3.5,-0.77 -6.75,-1.16 -9.75,-1.16 -3.27,0 -5.84,0.5 -7.71,1.5 -1.86,1 -2.8,2.41 -2.8,4.23 0,1.09 1.16,2.11 3.48,3.07 2.32,0.95 6.75,2.2 13.3,3.75 3.91,0.91 8.05,1.84 12.41,2.79 4.36,0.95 8.48,2.27 12.34,3.95 3.86,1.68 7,4.09 9.41,7.23 2.41,3.14 3.61,7.3 3.61,12.48 0,8.73 -3.5,15.57 -10.5,20.53 -7,4.96 -16.73,7.43 -29.18,7.43z"/>
    <path id="_1_2" class="fil2" d="M340.71 135.5c-6.73,0 -13.04,-0.81 -18.93,-2.44 -5.79,-1.6 -11.01,-3.63 -15.66,-6.11 -0.17,-0.09 -0.33,-0.18 -0.48,-0.28 -2.14,-1.15 -4.14,-2.31 -6,-3.48 -2.13,-1.34 -4.08,-2.68 -5.85,-4.02 -2.76,-2.09 -3.42,-5.93 -1.57,-8.8l12.23 -19.7c0.37,-0.6 0.82,-1.11 1.33,-1.54 -1.22,-1.01 -2.36,-2.1 -3.41,-3.27 -0,-0 -0.01,-0.01 -0.01,-0.01l-0.01 0.01c-2.08,-2.3 -3.63,-4.97 -4.66,-8.02 -0.98,-2.89 -1.47,-6.05 -1.47,-9.47 0,-2.76 0.34,-5.39 1.02,-7.88 0.68,-2.52 1.74,-4.9 3.15,-7.14 1.31,-2.08 2.85,-3.99 4.59,-5.73 1.77,-1.75 3.71,-3.3 5.83,-4.65 0.16,-0.1 0.33,-0.2 0.5,-0.28 1.97,-1.22 4.01,-2.27 6.11,-3.14 2.25,-0.94 4.69,-1.73 7.3,-2.37 2.56,-0.63 5.08,-1.09 7.56,-1.38 2.58,-0.31 5.17,-0.46 7.76,-0.46 4.32,0 8.43,0.27 12.34,0.81 3.93,0.54 7.57,1.36 10.9,2.46 3.21,1.05 6.35,2.27 9.41,3.65 3.11,1.4 6.11,2.94 8.99,4.62 3.14,1.83 4.2,5.86 2.37,9 -0.16,0.28 -0.34,0.54 -0.54,0.78l-12.08 18.32c-0.16,0.24 -0.33,0.47 -0.51,0.68 4.46,2.1 8.16,5.05 11.07,8.85 0,0 0.01,0.01 0.01,0.01l0.02 -0.01c1.69,2.2 2.95,4.75 3.79,7.63 0.79,2.73 1.19,5.67 1.19,8.83 0,5.38 -1.12,10.27 -3.37,14.66 -2.24,4.37 -5.55,8.11 -9.93,11.21 -4.2,2.97 -9.11,5.18 -14.71,6.6 -5.4,1.38 -11.49,2.06 -18.26,2.06zm0 -6.58c-6.18,0 -11.91,-0.73 -17.18,-2.18 -5.27,-1.45 -10.05,-3.32 -14.32,-5.59 -4.27,-2.27 -8.09,-4.68 -11.46,-7.23l12.27 -19.78c3.82,3.55 7.5,6.27 11.05,8.18 3.55,1.91 7.25,3.23 11.11,3.95 3.86,0.73 8.07,1.09 12.61,1.09 3.91,0 7.05,-0.52 9.41,-1.57 2.36,-1.05 3.55,-2.39 3.55,-4.02 0,-1.36 -1.14,-2.43 -3.41,-3.2 -2.27,-0.77 -5.18,-1.46 -8.73,-2.05 -3.54,-0.59 -7.27,-1.34 -11.18,-2.25 -5.55,-1.45 -10.73,-3.14 -15.55,-5.05 -4.82,-1.91 -8.7,-4.5 -11.66,-7.77 -2.95,-3.27 -4.43,-7.64 -4.43,-13.09 0,-4.36 1.05,-8.21 3.14,-11.52 2.09,-3.32 4.89,-6.09 8.39,-8.32 3.5,-2.23 7.48,-3.89 11.93,-4.98 4.46,-1.09 9.05,-1.64 13.77,-1.64 8.18,0 15.25,0.98 21.21,2.93 5.96,1.96 11.66,4.52 17.12,7.71l-12.41 18.82c-2.73,-1.91 -5.84,-3.57 -9.34,-4.98 -3.5,-1.41 -7,-2.5 -10.5,-3.27 -3.5,-0.77 -6.75,-1.16 -9.75,-1.16 -3.27,0 -5.84,0.5 -7.71,1.5 -1.86,1 -2.8,2.41 -2.8,4.23 0,1.09 1.16,2.11 3.48,3.07 2.32,0.95 6.75,2.2 13.3,3.75 3.91,0.91 8.05,1.84 12.41,2.79 4.36,0.95 8.48,2.27 12.34,3.95 3.86,1.68 7,4.09 9.41,7.23 2.41,3.14 3.61,7.3 3.61,12.48 0,8.73 -3.5,15.57 -10.5,20.53 -7,4.96 -16.73,7.43 -29.18,7.43z"/>
   </g>
   <g>
    <path class="fil6 str0" d="M43.76 42.06c-2,-0.22 -3.38,-0.23 -4.98,0.27 -0.3,0.09 -0.66,0.17 -0.96,0.29 -0.58,0.23 -1.61,0.76 -2.11,1.13 -1.2,0.89 -2.13,1.62 -2.99,3.01 -0.99,1.58 -0.79,1.57 -1.16,3.02 -0.09,0.36 -0.17,0.72 -0.22,1.06l-0.11 0.99c-0.08,1.2 0.02,2.35 0.17,3.66 0.2,1.82 0.49,3.37 0.75,5.11 0.22,1.46 0.3,4.57 0.13,6.04 -0.22,1.93 -1.32,4.98 -2.04,6.72 -0.7,1.7 -1.98,4.82 -2.19,6.61 0,0 -0,0.01 -0,0.01l-0.19 1.65c-0.05,0.64 -0.03,1.23 0.13,2.2 0.1,0.63 0.3,1.3 0.51,1.85 0.45,1.2 1.08,2.12 1.85,3.1 1.86,2.33 4.28,3.5 7.36,3.85 3.25,0.37 6.74,-1.75 9.4,-3.46l16.09 -10.32c1.19,-0.77 0.85,-0.52 1.9,-1.39 0.43,-0.35 1.24,-1.39 1.57,-1.89 1.17,-1.8 1.64,-3.82 1.91,-6.25 0.22,-1.96 -0.78,-4.48 -1.73,-5.89l-2.21 -2.69 -9.03 -8.97c-0.29,-0.3 -0.54,-0.55 -0.84,-0.83l-4.94 -4.9c-0.29,-0.29 -0.52,-0.52 -0.8,-0.8l-1.22 -1.22c-0.17,-0.18 -0.27,-0.22 -0.49,-0.36 -0.98,-0.63 -2.31,-1.47 -3.56,-1.61z"/>
    <path class="fil6 str0" d="M83.91 52.1c-2.37,-0.27 -4.19,-0.02 -6.19,0.72 -0.3,0.11 -0.58,0.24 -0.83,0.37 -0.82,0.42 -0.77,0.38 -1.52,0.93l-0.69 0.55c-1.37,1.09 -2.56,3.09 -2.79,5.07 -0.2,1.73 0.32,3.76 1.23,5.04l1.01 1.26c0.32,0.38 0.8,0.75 1.19,1.05 4.37,3.34 10.13,2.61 14.74,0.19 2.1,-1.1 5.08,-3.54 5.36,-6.01 0.12,-1.05 0.2,-1.78 -0.27,-2.79 -0.27,-0.59 -0.51,-0.98 -0.9,-1.47 -2.17,-2.73 -6.75,-4.51 -10.34,-4.91z"/>
    <path class="fil6 str0" d="M79.43 74.53c-2.93,-0.33 -5.16,0.46 -7.05,1.77 -0.25,0.17 -0.33,0.3 -0.55,0.5 -0.75,0.67 -1.38,1.56 -1.75,2.53 -0.73,1.93 -0.65,3.93 0.16,5.67 0.5,1.09 1.12,2 1.95,2.83 2.84,2.87 6.82,3.78 11.06,3.22 2.33,-0.31 4.45,-1.04 6.29,-2.48 1.75,-1.38 2.35,-3.62 1.52,-5.69 -0.37,-0.93 -0.92,-1.77 -1.53,-2.54 -2.18,-2.74 -6.52,-5.39 -10.1,-5.79z"/>
    <path class="fil6 str0" d="M58.16 41.73c-0.16,1.44 -0.19,2.4 0.43,3.73 0.39,0.84 0.85,1.5 1.48,2.14 1.3,1.33 3.24,2.24 5.66,2.51 2.56,0.29 4.8,-0.49 6.72,-1.47 0.72,-0.37 2.01,-1.18 2.61,-1.67 0.21,-0.17 0.27,-0.27 0.47,-0.44 1.08,-0.89 2.52,-2.55 2.98,-4.21 1.65,-6.07 -7.69,-8.25 -12.98,-7.32 -1.26,0.22 -2.51,0.74 -3.58,1.4l-1.05 0.73c-1.3,1.19 -2.52,2.72 -2.73,4.59z"/>
    <path class="fil6 str0" d="M59.82 88.29c-2.09,-0.24 -3.57,0.15 -4.97,1 -1.02,0.63 -2.3,2.16 -2.48,3.81 -0.17,1.55 -0.11,2.18 0.43,3.61 0.31,0.83 0.96,1.83 1.58,2.44 1.41,1.38 2.29,2.06 4.48,2.7 2.96,0.85 7.92,0.88 9.84,-1.79 1.18,-1.64 0.47,-3.97 -0.38,-5.5 -0.87,-1.58 -3.06,-3.94 -4.73,-4.88 -1.06,-0.6 -2.21,-1.2 -3.77,-1.38z"/>
   </g>
  </g>
 </g>
</svg>
